<svg xmlns="http://www.w3.org/2000/svg" viewBox="0 0 645.83 645.82">
    <defs>
        <style>.cls-1{fill:#a7aaad;}</style>
    </defs>
    <title>bdac_exhibits_iconn</title>
    <g id="Layer_2" data-name="Layer 2">
        <g id="Layer_1-2" data-name="Layer 1">
        <path class="cls-1" d="M503.17,116.15l-67.62,67.62,26.52,26.53,67.62-67.63a124.65,124.65,0,0,0,11.56-13.29l-24.8-24.79a126.42,126.42,0,0,0-13.28,11.56Z"/>
        <path class="cls-1" d="M552.91,92.92c-4.27-4.26-16.13-1.62-29.85,7.09l22.75,22.76c8.73-13.73,11.36-25.58,7.1-29.85Z"/>
        <path class="cls-1" d="M544.63,533.34c2.12-14.26-1.46-24.13-2.19-25.93L463.73,281.24,500,245a5.93,5.93,0,0,0,.85-7.3l-14-22.62,42-42.09C637.07,67.54,645.5,9.07,645.78,6.65a5.9,5.9,0,0,0-6.61-6.6c-2.45.3-60.91,8.71-166.29,117l-42.09,42-22.62-14a5.93,5.93,0,0,0-7.32.84L364.57,182.1,138.42,103.4c-1.81-.72-11.68-4.34-25.93-2.2-13.77,2-34.72,10-56.39,36.41A5.9,5.9,0,0,0,57,146L267.7,314.41,172.13,430.3,46.23,407.93c-3.93-1.17-22.33-4.74-44.73,20.55a5.94,5.94,0,0,0,1.22,8.93l115.45,73.86,16.38,16.38L208.42,643.1a7,7,0,0,0,.79,1,5.87,5.87,0,0,0,3.38,1.68,6,6,0,0,0,4.76-1.44c25.29-22.42,21.73-40.81,20.55-44.74L215.52,473.68l115.89-95.56L499.84,588.84a5.92,5.92,0,0,0,8.39.89c26.39-21.65,34.37-42.62,36.41-56.39ZM464.87,218.66a4,4,0,0,1-5.59,0l-32.11-32.11a4,4,0,0,1,0-5.59l70.41-70.41c24-24,50.18-34,60.92-23.22s.76,36.93-23.22,60.91l-70.41,70.41Z"/>
        </g>
    </g>
</svg>